<?xml version="1.0" encoding="utf-8"?>
<!-- Generator: Adobe Illustrator 19.2.0, SVG Export Plug-In . SVG Version: 6.00 Build 0)  -->
<svg version="1.1" id="Capa_1" xmlns="http://www.w3.org/2000/svg" xmlns:xlink="http://www.w3.org/1999/xlink" x="0px" y="0px"
	 viewBox="0 0 90 39.5" style="enable-background:new 0 0 90 39.5;" xml:space="preserve">
<style type="text/css">
	.st0{fill:#F6F6F3;}
	.st1{fill:#EC4043;}
	.st2{fill:#E7282B;}
</style>
<g>
	<g>
		<g>
			<path class="st0" d="M18.3,13.6l-2.5,11.3c0,0,0,0.1,0.1,0.1h2.3c0,0,0.1,0,0.1-0.1l1-4.5c0,0,0-0.1,0.1-0.1h3.7
				c0,0,0.1,0,0.1-0.1l0.6-1.8c0,0,0-0.1-0.1-0.1h-4c0,0-0.1,0-0.1-0.1l0.7-2.6l0.1-0.1h3.9c0,0,0.1,0,0.1-0.1l0.8-1.8
				c0,0,0-0.1-0.1-0.1L18.3,13.6L18.3,13.6z"/>
		</g>
	</g>
	<path class="st0" d="M67.7,13.5h-1.9h-0.1v0.1l-2.5,11.3c0,0,0,0.1,0.1,0.1h1.9c0,0,0.1,0,0.1-0.1L67.7,13.5L67.7,13.5z"/>
	<path class="st0" d="M35.4,17.9c-0.5-0.6-1.2-0.9-2.3-0.9c-1.3,0-2.1,0.6-2.5,1l0.9-4.3l0,0l0,0c0-0.1,0-0.1-0.1-0.2h-0.1h-1.6l0,0
		c-0.1,0-0.2,0-0.3,0.2l-1.7,7.5l0,0c0,0.1,0,0.3-0.1,0.5c0,0.7,0,1.5,0.5,2.3c0.5,0.8,1.3,1.3,2.9,1.3l0,0c2.5,0,3.9-1.7,4.4-2.9
		l0,0c0.1-0.2,0.1-0.4,0.2-0.6c0-0.1,0.1-0.2,0.1-0.4l0,0c0-0.1,0-0.2,0.1-0.3c0.1-0.3,0.1-0.5,0.1-0.8
		C36.2,19.4,35.9,18.6,35.4,17.9z M33.9,21c-0.3,1.1-1,2.3-2.5,2.3c-1.2,0-1.7-0.8-1.6-1.8c0-0.1,0-0.3,0.1-0.4
		c0.3-1.1,1.2-2.3,2.5-2.3c0.6,0,0.9,0.2,1.2,0.5c0.2,0.3,0.3,0.8,0.3,1.2C34,20.7,34,20.8,33.9,21z"/>
	<g>
		<path class="st0" d="M27.1,13.5c-0.8,0-1.3,0.6-1.4,1.2c0,0.1,0,0.1,0,0.2c0,0.3,0.1,0.6,0.2,0.8c0.2,0.2,0.5,0.3,0.8,0.3l0,0
			c0.8,0,1.3-0.5,1.5-1.2c0-0.1,0-0.1,0-0.2c0-0.3-0.1-0.6-0.3-0.8C27.7,13.6,27.4,13.5,27.1,13.5z"/>
		<path class="st0" d="M27.3,17.1h-1.9c0,0-0.1,0-0.1,0.1l-1.6,7.5c0,0,0,0.1,0.1,0.1h1.9c0,0,0.1,0,0.1-0.1L27.3,17.1
			C27.3,17.2,27.3,17.1,27.3,17.1z"/>
	</g>
	<path class="st0" d="M43.9,17.8c-0.5-0.6-1.2-0.8-2.2-0.8c-2.4,0-4.4,1.6-4.9,4.1c-0.1,0.2-0.1,0.5-0.1,0.7c-0.1,1,0.2,1.9,0.8,2.5
		s1.4,0.9,2.5,0.9l0,0c1.2,0,2.4-0.5,3.5-1.5l0,0c0.1-0.1,0-0.1,0-0.2l-1-0.9c-0.1-0.1-0.2,0-0.2,0c-0.6,0.6-1.2,0.9-2.1,0.9
		c-0.9,0-1.6-0.6-1.6-1.6l0.1-0.1l0,0h5.5l0,0c0.2,0,0.2,0,0.3-0.2l0,0l0.1-0.4c0.1-0.4,0.1-0.7,0.1-0.9
		C44.6,19.2,44.4,18.4,43.9,17.8z M42.6,20.1L42.6,20.1C42.6,20.1,42.6,20.2,42.6,20.1l-3.7,0.1v-0.1l0,0c0.4-0.9,1.2-1.5,2.2-1.5
		c0.6,0,0.9,0.1,1.1,0.4C42.5,19.2,42.6,19.5,42.6,20.1C42.6,20,42.6,20.1,42.6,20.1z"/>
	<path class="st0" d="M55.8,17h-2.5l0,0l0.5-2.1c0-0.1,0-0.1-0.1-0.1l0,0h-1.8c-0.1,0-0.2,0-0.2,0.1l0,0l0,0l0,0L51.2,17l0,0
		l-0.4,1.8l0,0l-0.8,3.5C50,22.6,50,23,50,23.2c0,0.6,0.1,1.1,0.4,1.4c0.4,0.3,0.8,0.5,1.7,0.5c0.5,0,1.1-0.1,1.5-0.3l0,0
		c0.1,0,0.1-0.1,0.1-0.1l0,0l0.4-1.7l0,0c0-0.1,0,0,0,0l0,0L54,23.1c-0.3,0.2-0.8,0.2-1,0.2c-0.4,0-0.6-0.1-0.7-0.2
		c-0.1-0.1-0.2-0.3-0.1-0.6c0-0.1,0-0.3,0.1-0.4l0.7-3.2c0,0,0,0,0.1,0h2c0,0,0.1,0,0.1-0.1l0,0L55.8,17L55.8,17z"/>
	<path class="st0" d="M50.2,17L50.2,17L50.2,17L50.2,17c0,0,0,0-0.2,0h-0.2c-0.1,0-0.2,0-0.3,0l0,0h-1.1l0,0c-0.8,0-1.6,0.5-2,0.9
		c-0.8,0.8-0.9,2-1.2,3l0,0l0,0l-0.8,3.9c0,0.1,0,0.1,0.1,0.1h1.8c0.1,0,0.2-0.1,0.2-0.1l0.8-4c0.1-0.4,0.2-0.9,0.4-1.3
		c0.2-0.4,0.6-0.7,1.2-0.7h0.8c0.1,0,0.1,0,0.1-0.1L50.2,17"/>
	<path class="st0" d="M62.3,17.8c-0.5-0.6-1.2-0.8-2.2-0.8c-2.4,0-4.4,1.6-4.9,4.1c-0.1,0.2-0.1,0.5-0.1,0.7c-0.1,1,0.2,1.9,0.8,2.5
		s1.4,0.9,2.5,0.9l0,0c1.2,0,2.4-0.5,3.5-1.5l0,0c0.1-0.1,0-0.1,0-0.2l-1-0.9c-0.1-0.1-0.2,0-0.2,0c-0.6,0.6-1.2,0.9-2.1,0.9
		c-0.9,0-1.6-0.6-1.6-1.6l0.1-0.1l0,0h5.5l0,0c0.2,0,0.2,0,0.3-0.2l0,0l0.1-0.4c0.1-0.4,0.1-0.7,0.1-0.9
		C63,19.2,62.8,18.4,62.3,17.8z M61,20.1L61,20.1C61,20.1,61,20.2,61,20.1l-3.6,0.1v-0.1l0,0c0.4-0.9,1.1-1.5,2.2-1.5
		c0.6,0,0.9,0.1,1.1,0.4C61,19.2,61.1,19.5,61,20.1C61,20,61,20.1,61,20.1z"/>
</g>
<path class="st1" d="M60.7,27.9c-2.7,0-4.1-0.6-4.2-0.6l0,0c0,0,0.9,0.2,2.5,0.2c2.2,0,5.6-0.3,9.7-1.9c5.4-2.1,8.9-5,9.3-7.4
	c0.1-0.6,0-1.1-0.3-1.5c-1.1-1.4-4.4-1.5-5.4-1.5c-0.3,0-0.4,0-0.4,0v-0.4c0,0,0.7-0.1,1.7-0.1c2,0,4.5,0.3,5.7,1.6
	c0.5,0.6,0.7,1.2,0.6,2c-0.3,2.8-5,6.4-10.7,8.2C66.1,27.4,63.2,27.9,60.7,27.9L60.7,27.9z"/>
<g>
	<path class="st2" d="M88.9,35.2c-0.3,1.6-1.8,2.9-3.4,3c-27,1.6-54,1.6-80.9,0c-1.6-0.1-3.1-1.4-3.4-3c-1.5-10.3-1.5-20.7,0-31
		c0.3-1.6,1.8-2.9,3.4-3c27-1.6,54-1.6,80.9,0c1.6,0.1,3.1,1.4,3.4,3C90.4,14.6,90.4,24.9,88.9,35.2z"/>
	<g>
		<path class="st0" d="M26.4,21.8c0.2,2.4,1.4,3.4,3.7,3.4c2.1,0,3.4-1.2,3.8-3c0,0,0.1-0.4,0.1-0.7c0-0.1,0-0.2,0-0.3
			c0-1-0.4-2-0.9-2.6c-0.6-0.7-1.4-1-2.4-1c-1.3,0-1.9,0.6-2.3,1l0,0v-4.3c0-0.1-0.1-0.1-0.1-0.1h-1.6c-0.1,0-0.1,0.1-0.1,0.1
			L26.4,21.8L26.4,21.8z M30.1,19.4c1.2,0,2,0.9,2,2.1c0,1.2-0.7,2.1-2,2.1c-1.2,0-1.9-0.8-1.9-2.1C28.2,20.3,28.8,19.4,30.1,19.4z"
			/>
		<path class="st0" d="M34.7,24.8C34.7,24.9,34.8,24.9,34.7,24.8l1.7,0.1c0.1,0,0.1-0.1,0.1-0.1V14.4c0-0.1-0.1-0.1-0.1-0.1h-1.6
			c-0.1,0-0.1,0.1-0.1,0.1V24.8z"/>
		<path class="st0" d="M39.3,21.9L39.3,21.9L39.3,21.9L39.3,21.9L39.3,21.9z"/>
		<path class="st0" d="M18.6,23.4c0.1-0.1,0.1-0.2,0-0.2l-1.3-0.9c-0.1,0-0.2,0-0.2,0c-0.7,0.8-1.4,1.1-2.2,1.1
			c-2,0-3.1-1.6-3.1-3.8c0-2.1,1.1-3.7,3.1-3.7c0.7,0,1.3,0.2,2.1,0.9l0,0c0,0,0.1,0.1,0.1,0l0,0l1.2-0.9l0,0c0.1-0.1,0.1-0.2,0-0.3
			c-0.9-1.1-2.1-1.5-3.4-1.5c-1.5,0-2.7,0.6-3.7,1.5c-0.9,0.9-1.4,2.4-1.4,4.1c0,1.6,0.5,3,1.4,4c0.9,0.9,2.2,1.5,3.7,1.5l0,0
			C16.3,25.1,17.6,24.6,18.6,23.4L18.6,23.4z"/>
		<path class="st0" d="M23.6,21.7C23.6,21.7,23.7,21.7,23.6,21.7l0.3,0.1l-0.1-0.2l-0.3-0.1L23.6,21.7z"/>
		<path class="st0" d="M23.8,24C23.8,24,23.9,23.8,23.8,24H24l-0.2-0.6l-0.3,0.2L23.8,24z"/>
		<path class="st0" d="M23.9,20.3C23.9,20.4,23.8,20.4,23.9,20.3L23.9,20.3L23.9,20.3L23.9,20.3L23.9,20.3z"/>
		<path class="st0" d="M51.6,17.8h-1.7c-0.1,0-0.1,0-0.2,0.1l-1.6,4.6c0,0.1-0.1,0.1-0.1,0l-1.7-4.6c0-0.1-0.1-0.1-0.2-0.1h-1.7
			c-0.1,0-0.1,0.1-0.1,0.1s0,0,0,0.1l2.6,6.8c0,0.1,0.1,0.1,0.2,0.1h1.7c0.1,0,0.1-0.1,0.2-0.1L51.6,17.8
			C51.7,17.8,51.6,17.8,51.6,17.8z"/>
		<path class="st0" d="M41.2,17.6c-1,0-2.1,0.4-2.7,1c-0.7,0.7-1,1.6-1,2.7c0,1.1,0.3,2.1,1,2.7c0.7,0.7,1.7,1,2.7,1l0,0
			c1.1,0,2-0.4,2.8-1.3l0,0c0-0.1,0-0.1,0-0.2l0,0l-1.1-0.8l0,0c0,0-0.1,0-0.2,0l0,0c-0.4,0.5-0.8,0.8-1.7,0.8
			c-0.9,0-1.6-0.6-1.7-1.6h4.7l0,0h0.3c0.1,0,0.1-0.1,0.1-0.1v-0.4l0,0v-0.2c0-1.2-0.4-2.2-0.9-2.8C42.9,18,42.2,17.6,41.2,17.6z
			 M42.5,20.6L42.5,20.6h-3.2l0,0l0,0c0.2-0.9,0.8-1.6,1.6-1.6C42,19,42.5,19.6,42.5,20.6C42.5,20.5,42.5,20.6,42.5,20.6z
			 M54.2,17.8h-1.6c-0.1,0-0.1,0.1-0.1,0.1v6.9c0,0.1,0.1,0.1,0.1,0.1h1.6c0.1,0,0.1-0.1,0.1-0.1L54.2,17.8
			C54.2,17.8,54.2,17.8,54.2,17.8z M68.4,16.5h1.2c0.1,0,0.2,0,0.2-0.1l2-2v-0.1h-1.9c-0.1,0-0.1,0-0.1,0s0,0.1-0.1,0.1L68.4,16.5
			C68.3,16.4,68.3,16.5,68.4,16.5z M22.4,17.6c-1.1,0-2.1,0.3-2.8,1.1v0.1l0.8,0.8c0,0,0.1,0,0.2,0c0.5-0.4,0.9-0.7,1.7-0.7
			c0.9,0,1.6,0.5,1.6,1.2v0.2h-0.4c-0.8,0-2,0-2.9,0.4c-0.8,0.3-1.4,0.9-1.4,2.1c0,1.4,1.1,2.2,2.5,2.2l0,0c0.9,0,1.7-0.4,2.3-1.1
			v0.4c0,0.3,0.2,0.6,0.6,0.6h0.9c0.1,0,0.1-0.1,0.1-0.1v-0.3l0,0v-3.7c0-0.5,0-1.3-0.4-2C24.6,18.2,23.9,17.6,22.4,17.6z M23.7,22
			c0,0.9-0.6,1.5-1.7,1.6c-0.3,0-0.5-0.1-0.7-0.2c-0.2-0.2-0.4-0.4-0.4-0.7c0-0.5,0.3-0.8,0.8-0.8c0.6-0.2,1.1-0.2,1.6-0.2h0.4
			L23.7,22L23.7,22z M63.1,14.3c-0.7,0-1.1,0.5-1.1,1s0.5,1,1.1,1s1.1-0.5,1.1-1C64.2,14.7,63.8,14.3,63.1,14.3z M79.5,18.4
			c-0.4-0.6-1-0.8-2-0.8c-1.1,0-1.8,0.6-2.1,1.2l0,0V18c0-0.1-0.1-0.1-0.1-0.1h-1.5c-0.1,0-0.1,0-0.1,0.1v6.9c0,0.1,0.1,0.1,0.1,0.1
			h1.6c0.1,0,0.1-0.1,0.1-0.1v-3.8c0-0.9,0.5-1.7,1.6-1.7c0.6,0,0.8,0.3,1,0.8c0.2,0.4,0.2,0.9,0.2,1.3v3.2l0,0V25
			c0,0.1,0.1,0.1,0.1,0.1h1.6c0.1,0,0.1-0.1,0.1-0.1v-4.3C80.2,19.7,80,19,79.5,18.4z M69,17.6c-1,0-1.9,0.4-2.6,1
			c-0.7,0.7-1,1.6-1,2.7c0,1.1,0.3,2.1,1,2.7c0.7,0.7,1.5,1,2.6,1c1,0,1.9-0.4,2.6-1c0.7-0.7,1-1.6,1-2.7s-0.3-2.1-1-2.7
			C70.8,18,70,17.6,69,17.6z M69,23.4c-1.2,0-1.8-0.9-1.8-2.1c0-1,0.6-2.1,1.8-2.1s1.8,0.9,1.8,2.1S70.2,23.4,69,23.4z M53.3,14.3
			c-0.7,0-1.1,0.5-1.1,1s0.5,1,1.1,1s1.1-0.5,1.1-1C54.4,14.7,54,14.3,53.3,14.3z M64,17.8h-1.6c-0.1,0-0.1,0.1-0.1,0.1v6.9
			c0,0.1,0.1,0.1,0.1,0.1H64c0.1,0,0.1-0.1,0.1-0.1L64,17.8C64.1,17.8,64,17.8,64,17.8z M59.2,20.7c-0.5-0.1-0.9-0.2-1.3-0.3
			c-0.4-0.1-0.6-0.3-0.6-0.6c0-0.3,0.1-0.4,0.3-0.6c0.2-0.1,0.5-0.2,0.7-0.2c0.6,0,0.9,0.2,1.3,0.7c0,0,0.1,0,0.2,0l0,0l1-0.9l0,0
			c0,0,0-0.1,0-0.2l0,0c-0.6-0.8-1.6-1-2.5-1c-0.8,0-1.4,0.2-2,0.6s-0.9,0.9-0.9,1.8c0,1.3,0.9,1.8,1.9,2c0.5,0.1,0.9,0.2,1.3,0.3
			c0.4,0.1,0.6,0.3,0.6,0.7c0,0.3-0.2,0.5-0.4,0.6c-0.2,0.1-0.5,0.2-0.8,0.2c-0.7,0-1.1-0.4-1.6-0.8l0,0c0,0-0.1,0-0.2,0l0,0
			l-0.9,0.9v0c0,0-0.1,0.1,0,0.2l0.2,0.2l0,0c0.7,0.7,1.5,0.8,2.5,0.8l0,0c0.8,0,1.5-0.2,2.1-0.5c0.6-0.4,1-0.9,1-1.8
			C61.1,21.4,60.2,20.9,59.2,20.7z"/>
	</g>
</g>
</svg>
