<?xml version="1.0" encoding="utf-8"?>
<!-- Generator: Adobe Illustrator 19.2.0, SVG Export Plug-In . SVG Version: 6.00 Build 0)  -->
<svg version="1.1" id="Capa_1" xmlns="http://www.w3.org/2000/svg" xmlns:xlink="http://www.w3.org/1999/xlink" x="0px" y="0px"
	 viewBox="0 0 90 39.5" style="enable-background:new 0 0 90 39.5;" xml:space="preserve">
<style type="text/css">
	.st0{fill:#054366;}
	.st1{fill:#F6F6F3;}
	.st2{fill:#EC4043;}
</style>
<path class="st0" d="M88.9,35.2c-0.3,1.6-1.8,2.9-3.4,3c-27,1.6-53.9,1.6-80.9,0c-1.6-0.2-3.1-1.4-3.4-3c-1.5-10.4-1.5-20.7,0-31
	c0.3-1.6,1.8-2.9,3.4-3c27-1.6,53.9-1.6,80.9,0c1.6,0.1,3.1,1.4,3.4,3C90.4,14.5,90.4,24.9,88.9,35.2z"/>
<g>
	<g>
		<g>
			<path class="st1" d="M18.3,13.6l-2.5,11.3c0,0,0,0.1,0.1,0.1h2.3c0,0,0.1,0,0.1-0.1l1-4.5c0,0,0-0.1,0.1-0.1h3.7
				c0,0,0.1,0,0.1-0.1l0.6-1.8c0,0,0-0.1-0.1-0.1h-4c0,0-0.1,0-0.1-0.1l0.7-2.6l0.1-0.1h3.9c0,0,0.1,0,0.1-0.1l0.8-1.8
				c0,0,0-0.1-0.1-0.1L18.3,13.6L18.3,13.6z"/>
		</g>
	</g>
	<path class="st1" d="M67.7,13.5h-1.9h-0.1v0.1l-2.5,11.3c0,0,0,0.1,0.1,0.1h1.9c0,0,0.1,0,0.1-0.1L67.7,13.5L67.7,13.5z"/>
	<path class="st1" d="M35.4,17.9c-0.5-0.6-1.2-0.9-2.3-0.9c-1.3,0-2.1,0.6-2.5,1l0.9-4.3l0,0l0,0c0-0.1,0-0.1-0.1-0.2h-0.1h-1.6l0,0
		c-0.1,0-0.2,0-0.3,0.2l-1.7,7.5l0,0c0,0.1,0,0.3-0.1,0.5c0,0.7,0,1.5,0.5,2.3c0.5,0.8,1.3,1.3,2.9,1.3l0,0c2.5,0,3.9-1.7,4.4-2.9
		l0,0c0.1-0.2,0.1-0.4,0.2-0.6c0-0.1,0.1-0.2,0.1-0.4l0,0c0-0.1,0-0.2,0.1-0.3c0.1-0.3,0.1-0.5,0.1-0.8
		C36.2,19.4,35.9,18.6,35.4,17.9z M33.9,21c-0.3,1.1-1,2.3-2.5,2.3c-1.2,0-1.7-0.8-1.6-1.8c0-0.1,0-0.3,0.1-0.4
		c0.3-1.1,1.2-2.3,2.5-2.3c0.6,0,0.9,0.2,1.2,0.5c0.2,0.3,0.3,0.8,0.3,1.2C34,20.7,34,20.8,33.9,21z"/>
	<g>
		<path class="st1" d="M27.1,13.5c-0.8,0-1.3,0.6-1.4,1.2c0,0.1,0,0.1,0,0.2c0,0.3,0.1,0.6,0.2,0.8c0.2,0.2,0.5,0.3,0.8,0.3l0,0
			c0.8,0,1.3-0.5,1.5-1.2c0-0.1,0-0.1,0-0.2c0-0.3-0.1-0.6-0.3-0.8C27.7,13.6,27.4,13.5,27.1,13.5z"/>
		<path class="st1" d="M27.3,17.1h-1.9c0,0-0.1,0-0.1,0.1l-1.6,7.5c0,0,0,0.1,0.1,0.1h1.9c0,0,0.1,0,0.1-0.1L27.3,17.1
			C27.3,17.2,27.3,17.1,27.3,17.1z"/>
	</g>
	<path class="st1" d="M43.9,17.8c-0.5-0.6-1.2-0.8-2.2-0.8c-2.4,0-4.4,1.6-4.9,4.1c-0.1,0.2-0.1,0.5-0.1,0.7c-0.1,1,0.2,1.9,0.8,2.5
		s1.4,0.9,2.5,0.9l0,0c1.2,0,2.4-0.5,3.5-1.5l0,0c0.1-0.1,0-0.1,0-0.2l-1-0.9c-0.1-0.1-0.2,0-0.2,0c-0.6,0.6-1.2,0.9-2.1,0.9
		c-0.9,0-1.6-0.6-1.6-1.6l0.1-0.1l0,0h5.5l0,0c0.2,0,0.2,0,0.3-0.2l0,0l0.1-0.4c0.1-0.4,0.1-0.7,0.1-0.9
		C44.6,19.2,44.4,18.4,43.9,17.8z M42.6,20.1L42.6,20.1C42.6,20.1,42.6,20.2,42.6,20.1l-3.7,0.1v-0.1l0,0c0.4-0.9,1.2-1.5,2.2-1.5
		c0.6,0,0.9,0.1,1.1,0.4C42.5,19.2,42.6,19.5,42.6,20.1C42.6,20,42.6,20.1,42.6,20.1z"/>
	<path class="st1" d="M55.8,17h-2.5l0,0l0.5-2.1c0-0.1,0-0.1-0.1-0.1l0,0h-1.8c-0.1,0-0.2,0-0.2,0.1l0,0l0,0l0,0L51.2,17l0,0
		l-0.4,1.8l0,0l-0.8,3.5C50,22.6,50,23,50,23.2c0,0.6,0.1,1.1,0.4,1.4c0.4,0.3,0.8,0.5,1.7,0.5c0.5,0,1.1-0.1,1.5-0.3l0,0
		c0.1,0,0.1-0.1,0.1-0.1l0,0l0.4-1.7l0,0c0-0.1,0,0,0,0l0,0L54,23.1c-0.3,0.2-0.8,0.2-1,0.2c-0.4,0-0.6-0.1-0.7-0.2
		c-0.1-0.1-0.2-0.3-0.1-0.6c0-0.1,0-0.3,0.1-0.4l0.7-3.2c0,0,0,0,0.1,0h2c0,0,0.1,0,0.1-0.1l0,0L55.8,17L55.8,17z"/>
	<path class="st1" d="M50.2,17L50.2,17L50.2,17L50.2,17c0,0,0,0-0.2,0h-0.2c-0.1,0-0.2,0-0.3,0l0,0h-1.1l0,0c-0.8,0-1.6,0.5-2,0.9
		c-0.8,0.8-0.9,2-1.2,3l0,0l0,0l-0.8,3.9c0,0.1,0,0.1,0.1,0.1h1.8c0.1,0,0.2-0.1,0.2-0.1l0.8-4c0.1-0.4,0.2-0.9,0.4-1.3
		c0.2-0.4,0.6-0.7,1.2-0.7h0.8c0.1,0,0.1,0,0.1-0.1L50.2,17"/>
	<path class="st1" d="M62.3,17.8c-0.5-0.6-1.2-0.8-2.2-0.8c-2.4,0-4.4,1.6-4.9,4.1c-0.1,0.2-0.1,0.5-0.1,0.7c-0.1,1,0.2,1.9,0.8,2.5
		s1.4,0.9,2.5,0.9l0,0c1.2,0,2.4-0.5,3.5-1.5l0,0c0.1-0.1,0-0.1,0-0.2l-1-0.9c-0.1-0.1-0.2,0-0.2,0c-0.6,0.6-1.2,0.9-2.1,0.9
		c-0.9,0-1.6-0.6-1.6-1.6l0.1-0.1l0,0h5.5l0,0c0.2,0,0.2,0,0.3-0.2l0,0l0.1-0.4c0.1-0.4,0.1-0.7,0.1-0.9
		C63,19.2,62.8,18.4,62.3,17.8z M61,20.1L61,20.1C61,20.1,61,20.2,61,20.1l-3.6,0.1v-0.1l0,0c0.4-0.9,1.1-1.5,2.2-1.5
		c0.6,0,0.9,0.1,1.1,0.4C61,19.2,61.1,19.5,61,20.1C61,20,61,20.1,61,20.1z"/>
</g>
<path class="st2" d="M60.7,27.9c-2.7,0-4.1-0.6-4.2-0.6l0,0c0,0,0.9,0.2,2.5,0.2c2.2,0,5.6-0.3,9.7-1.9c5.4-2.1,8.9-5,9.3-7.4
	c0.1-0.6,0-1.1-0.3-1.5c-1.1-1.4-4.4-1.5-5.4-1.5c-0.3,0-0.4,0-0.4,0v-0.4c0,0,0.7-0.1,1.7-0.1c2,0,4.5,0.3,5.7,1.6
	c0.5,0.6,0.7,1.2,0.6,2c-0.3,2.8-5,6.4-10.7,8.2C66.1,27.4,63.2,27.9,60.7,27.9L60.7,27.9z"/>
</svg>
